<svg xmlns="http://www.w3.org/2000/svg" fill-rule="evenodd" stroke-linejoin="round" stroke-miterlimit="2" clip-rule="evenodd" viewBox="0 0 64 64" id="Calendar"><g transform="translate(-320 -320)" fill="#f44336" class="color000000 svgShape"><path d="M379,343L379,336C379,334.343 377.657,333 376,333L361.171,333C361.583,334.165 362.695,335 364,335C365.656,335 367,336.344 367,338C367,339.656 365.656,341 364,341C359.371,341 355.553,337.497 355.055,333L337.171,333C337.583,334.165 338.695,335 340,335C341.656,335 343,336.344 343,338C343,339.656 341.656,341 340,341C335.371,341 331.553,337.497 331.055,333L328,333C326.343,333 325,334.343 325,336L325,343L379,343Z" fill="#f44336" class="color000000 svgShape"></path><path d="M370.929 331L368.9 331C368.436 328.719 366.417 327 364 327 361.24 327 359 329.24 359 332 359 334.76 361.24 337 364 337 364.552 337 365 337.448 365 338 365 338.552 364.552 339 364 339 360.137 339 357 335.863 357 332 357 328.137 360.137 325 364 325 367.524 325 370.443 327.61 370.929 331zM346.929 331L344.9 331C344.436 328.719 342.417 327 340 327 337.24 327 335 329.24 335 332 335 334.76 337.24 337 340 337 340.552 337 341 337.448 341 338 341 338.552 340.552 339 340 339 336.137 339 333 335.863 333 332 333 328.137 336.137 325 340 325 343.524 325 346.443 327.61 346.929 331zM379 345L325 345 325 376C325 377.657 326.343 379 328 379 338.308 379 365.692 379 376 379 377.657 379 379 377.657 379 376L379 345zM363 366C363 364.343 361.657 363 360 363L356 363C354.343 363 353 364.343 353 366L353 370C353 371.657 354.343 373 356 373L360 373C361.657 373 363 371.657 363 370L363 366zM351 366C351 364.343 349.657 363 348 363L344 363C342.343 363 341 364.343 341 366L341 370C341 371.657 342.343 373 344 373L348 373C349.657 373 351 371.657 351 370L351 366zM375 366C375 364.343 373.657 363 372 363L368 363C366.343 363 365 364.343 365 366L365 370C365 371.657 366.343 373 368 373L372 373C373.657 373 375 371.657 375 370L375 366zM339 366C339 364.343 337.657 363 336 363L332 363C330.343 363 329 364.343 329 366L329 370C329 371.657 330.343 373 332 373L336 373C337.657 373 339 371.657 339 370L339 366zM337 366L337 370C337 370.552 336.552 371 336 371 336 371 332 371 332 371 331.448 371 331 370.552 331 370 331 370 331 366 331 366 331 365.448 331.448 365 332 365 332 365 336 365 336 365 336.552 365 337 365.448 337 366zM361 366L361 370C361 370.552 360.552 371 360 371 360 371 356 371 356 371 355.448 371 355 370.552 355 370 355 370 355 366 355 366 355 365.448 355.448 365 356 365 356 365 360 365 360 365 360.552 365 361 365.448 361 366zM349 366L349 370C349 370.552 348.552 371 348 371 348 371 344 371 344 371 343.448 371 343 370.552 343 370 343 370 343 366 343 366 343 365.448 343.448 365 344 365 344 365 348 365 348 365 348.552 365 349 365.448 349 366zM373 366L373 370C373 370.552 372.552 371 372 371 372 371 368 371 368 371 367.448 371 367 370.552 367 370 367 370 367 366 367 366 367 365.448 367.448 365 368 365 368 365 372 365 372 365 372.552 365 373 365.448 373 366zM339 354C339 352.343 337.657 351 336 351L332 351C330.343 351 329 352.343 329 354L329 358C329 359.657 330.343 361 332 361L336 361C337.657 361 339 359.657 339 358L339 354zM351 354C351 352.343 349.657 351 348 351L344 351C342.343 351 341 352.343 341 354L341 358C341 359.657 342.343 361 344 361L348 361C349.657 361 351 359.657 351 358L351 354zM363 354C363 352.343 361.657 351 360 351L356 351C354.343 351 353 352.343 353 354L353 358C353 359.657 354.343 361 356 361L360 361C361.657 361 363 359.657 363 358L363 354zM375 354C375 352.343 373.657 351 372 351L368 351C366.343 351 365 352.343 365 354L365 358C365 359.657 366.343 361 368 361L372 361C373.657 361 375 359.657 375 358L375 354zM337 354L337 358C337 358.552 336.552 359 336 359 336 359 332 359 332 359 331.448 359 331 358.552 331 358 331 358 331 354 331 354 331 353.448 331.448 353 332 353 332 353 336 353 336 353 336.552 353 337 353.448 337 354zM349 354L349 358C349 358.552 348.552 359 348 359 348 359 344 359 344 359 343.448 359 343 358.552 343 358 343 358 343 354 343 354 343 353.448 343.448 353 344 353 344 353 348 353 348 353 348.552 353 349 353.448 349 354zM361 354L361 358C361 358.552 360.552 359 360 359 360 359 356 359 356 359 355.448 359 355 358.552 355 358 355 358 355 354 355 354 355 353.448 355.448 353 356 353 356 353 360 353 360 353 360.552 353 361 353.448 361 354zM373 354L373 358C373 358.552 372.552 359 372 359 372 359 368 359 368 359 367.448 359 367 358.552 367 358 367 358 367 354 367 354 367 353.448 367.448 353 368 353 368 353 372 353 372 353 372.552 353 373 353.448 373 354z" fill="#f44336" class="color000000 svgShape"></path></g></svg>