<svg xmlns="http://www.w3.org/2000/svg" fill-rule="evenodd" stroke-linejoin="round" stroke-miterlimit="2" clip-rule="evenodd" viewBox="0 0 64 64" id="Checklist"><g transform="translate(-320 -576)" fill="#f44336" class="color000000 svgShape"><path d="M333.994,633C333.444,632.997 333,632.55 333,632L333,588C333,587.448 333.448,587 334,587L343.171,587C343.06,586.687 343,586.351 343,586L343,585L334,585C332.343,585 331,586.343 331,588C331,597.686 331,622.314 331,632C331,633.657 332.343,635 334,635C334,635 370,635 370,635C371.657,635 373,633.657 373,632L373,588C373,586.343 371.657,585 370,585L361,585L361,586C361,586.351 360.94,586.687 360.829,587L370,587C370.552,587 371,587.448 371,588L371,632C371,632.552 370.552,633 370,633L333.994,633Z" fill="#f44336" class="color000000 svgShape"></path><path d="M359 582L359 586C359 586.552 358.552 587 358 587 358 587 346 587 346 587 345.448 587 345 586.552 345 586 345 586 345 582 345 582 345 581.448 345.448 581 346 581 346 581 358 581 358 581 358.552 581 359 581.448 359 582zM335 631L369 631C369 631 369 589 369 589L335 589C335 589 335 631 335 631zM352 597C344.825 597 339 602.825 339 610 339 617.175 344.825 623 352 623 359.175 623 365 617.175 365 610 365 602.825 359.175 597 352 597zM352 599C358.071 599 363 603.929 363 610 363 616.071 358.071 621 352 621 345.929 621 341 616.071 341 610 341 603.929 345.929 599 352 599zM345.636 612.121L348.464 614.95C349.636 616.121 351.536 616.121 352.707 614.95 352.707 614.95 358.364 609.293 358.364 609.293 359.535 608.122 359.535 606.221 358.364 605.05 357.193 603.879 355.292 603.879 354.121 605.05 354.121 605.05 350.586 608.586 350.586 608.586L349.879 607.878C348.708 606.708 346.807 606.708 345.636 607.878 344.465 609.049 344.465 610.95 345.636 612.121zM347.05 610.707C346.66 610.317 346.66 609.683 347.05 609.293 347.441 608.902 348.074 608.902 348.464 609.293 348.464 609.293 349.879 610.707 349.879 610.707 350.066 610.894 350.321 611 350.586 611 350.851 611 351.105 610.894 351.293 610.707L355.536 606.464C355.926 606.074 356.559 606.074 356.95 606.464 357.34 606.855 357.34 607.488 356.95 607.878 356.95 607.878 351.293 613.535 351.293 613.535 350.902 613.926 350.269 613.926 349.879 613.535 349.879 613.535 347.05 610.707 347.05 610.707z" fill="#f44336" class="color000000 svgShape"></path></g></svg>