<svg xmlns="http://www.w3.org/2000/svg" fill-rule="evenodd" stroke-linejoin="round" stroke-miterlimit="2" clip-rule="evenodd" viewBox="0 0 64 64" id="AcceptFile"><g transform="translate(-576 -576)" fill="#f44336" class="color000000 svgShape"><path d="M629.586,591L621,582.414L621,588C621,589.657 622.343,591 624,591L629.586,591Z" fill="#f44336" class="color000000 svgShape"></path><path d="M588,635C591.49,635 628,635 628,635C628.796,635 629.559,634.684 630.121,634.121C630.684,633.559 631,632.796 631,632L631,593.657C631,593.434 630.975,593.214 630.927,593L624,593C621.239,593 619,590.761 619,588L619,581.073C618.786,581.025 618.566,581 618.343,581C618.343,581 588,581 588,581C586.343,581 585,582.343 585,584C585,594.308 585,621.692 585,632C585,632.796 585.316,633.559 585.879,634.121C586.441,634.684 587.204,635 588,635ZM591,626C591,626.796 591.316,627.559 591.879,628.121C592.441,628.684 593.204,629 594,629L622,629C622.796,629 623.559,628.684 624.121,628.121C624.684,627.559 625,626.796 625,626C625,626 625,626 625,626C625,625.204 624.684,624.441 624.121,623.879C623.559,623.316 622.796,623 622,623L594,623C593.204,623 592.441,623.316 591.879,623.879C591.316,624.441 591,625.204 591,626ZM623,626C623,625.735 622.895,625.48 622.707,625.293C622.52,625.105 622.265,625 622,625L594,625C593.735,625 593.48,625.105 593.293,625.293C593.105,625.48 593,625.735 593,626C593,626.265 593.105,626.52 593.293,626.707C593.48,626.895 593.735,627 594,627L622,627C622.265,627 622.52,626.895 622.707,626.707C622.895,626.52 623,626.265 623,626ZM591,618C591,618.796 591.316,619.559 591.879,620.121C592.441,620.684 593.204,621 594,621L622,621C622.796,621 623.559,620.684 624.121,620.121C624.684,619.559 625,618.796 625,618C625,618 625,618 625,618C625,617.204 624.684,616.441 624.121,615.879C623.559,615.316 622.796,615 622,615L594,615C593.204,615 592.441,615.316 591.879,615.879C591.316,616.441 591,617.204 591,618ZM623,618C623,617.735 622.895,617.48 622.707,617.293C622.52,617.105 622.265,617 622,617L594,617C593.735,617 593.48,617.105 593.293,617.293C593.105,617.48 593,617.735 593,618C593,618.265 593.105,618.52 593.293,618.707C593.48,618.895 593.735,619 594,619L622,619C622.265,619 622.52,618.895 622.707,618.707C622.895,618.52 623,618.265 623,618ZM608,587C600.825,587 595,592.825 595,600C595,607.175 600.825,613 608,613C615.175,613 621,607.175 621,600C621,592.825 615.175,587 608,587ZM608,589C614.071,589 619,593.929 619,600C619,606.071 614.071,611 608,611C601.929,611 597,606.071 597,600C597,593.929 601.929,589 608,589ZM601.636,602.121L604.464,604.95C605.636,606.121 607.536,606.121 608.707,604.95C608.707,604.95 614.364,599.293 614.364,599.293C615.535,598.122 615.535,596.221 614.364,595.05C613.193,593.879 611.292,593.879 610.121,595.05C610.121,595.05 606.586,598.586 606.586,598.586L605.879,597.878C604.708,596.708 602.807,596.708 601.636,597.878C600.465,599.049 600.465,600.95 601.636,602.121ZM603.05,600.707C602.66,600.317 602.66,599.683 603.05,599.293C603.441,598.902 604.074,598.902 604.464,599.293C604.464,599.293 605.879,600.707 605.879,600.707C606.066,600.894 606.321,601 606.586,601C606.851,601 607.105,600.894 607.293,600.707L611.536,596.464C611.926,596.074 612.559,596.074 612.95,596.464C613.34,596.855 613.34,597.488 612.95,597.878C612.95,597.878 607.293,603.535 607.293,603.535C606.902,603.926 606.269,603.926 605.879,603.535L603.05,600.707Z" fill="#f44336" class="color000000 svgShape"></path></g></svg>