<svg xmlns="http://www.w3.org/2000/svg" fill-rule="evenodd" stroke-linejoin="round" stroke-miterlimit="2" clip-rule="evenodd" viewBox="0 0 64 64" id="Clipboard"><g transform="translate(-192 -576)" fill="#f44336" class="color000000 svgShape"><path d="M205.994,633C205.444,632.997 205,632.55 205,632L205,588C205,587.448 205.448,587 206,587L215.171,587C215.06,586.687 215,586.351 215,586L215,585L206,585C204.343,585 203,586.343 203,588C203,597.686 203,622.314 203,632C203,633.657 204.343,635 206,635C206,635 242,635 242,635C243.657,635 245,633.657 245,632L245,588C245,586.343 243.657,585 242,585L233,585L233,586C233,586.351 232.94,586.687 232.829,587L242,587C242.552,587 243,587.448 243,588L243,632C243,632.552 242.552,633 242,633L205.994,633Z" fill="#f44336" class="color000000 svgShape"></path><path d="M231 582L231 586C231 586.552 230.552 587 230 587 230 587 218 587 218 587 217.448 587 217 586.552 217 586 217 586 217 582 217 582 217 581.448 217.448 581 218 581 218 581 230 581 230 581 230.552 581 231 581.448 231 582zM207 631L241 631C241 631 241 589 241 589L207 589C207 589 207 631 207 631zM211 622C211 622.796 211.316 623.559 211.879 624.121 212.441 624.684 213.204 625 214 625 218.52 625 229.48 625 234 625 234.796 625 235.559 624.684 236.121 624.121 236.684 623.559 237 622.796 237 622 237 622 237 622 237 622 237 621.204 236.684 620.441 236.121 619.879 235.559 619.316 234.796 619 234 619 229.48 619 218.52 619 214 619 213.204 619 212.441 619.316 211.879 619.879 211.316 620.441 211 621.204 211 622zM235 622C235 621.735 234.895 621.48 234.707 621.293 234.52 621.105 234.265 621 234 621L214 621C213.735 621 213.48 621.105 213.293 621.293 213.105 621.48 213 621.735 213 622 213 622.265 213.105 622.52 213.293 622.707 213.48 622.895 213.735 623 214 623L234 623C234.265 623 234.52 622.895 234.707 622.707 234.895 622.52 235 622.265 235 622zM211 614C211 614.796 211.316 615.559 211.879 616.121 212.441 616.684 213.204 617 214 617 218.52 617 229.48 617 234 617 234.796 617 235.559 616.684 236.121 616.121 236.684 615.559 237 614.796 237 614 237 614 237 614 237 614 237 613.204 236.684 612.441 236.121 611.879 235.559 611.316 234.796 611 234 611 229.48 611 218.52 611 214 611 213.204 611 212.441 611.316 211.879 611.879 211.316 612.441 211 613.204 211 614zM235 614C235 613.735 234.895 613.48 234.707 613.293 234.52 613.105 234.265 613 234 613L214 613C213.735 613 213.48 613.105 213.293 613.293 213.105 613.48 213 613.735 213 614 213 614.265 213.105 614.52 213.293 614.707 213.48 614.895 213.735 615 214 615L234 615C234.265 615 234.52 614.895 234.707 614.707 234.895 614.52 235 614.265 235 614zM211 606C211 606.796 211.316 607.559 211.879 608.121 212.441 608.684 213.204 609 214 609 218.52 609 229.48 609 234 609 234.796 609 235.559 608.684 236.121 608.121 236.684 607.559 237 606.796 237 606 237 606 237 606 237 606 237 605.204 236.684 604.441 236.121 603.879 235.559 603.316 234.796 603 234 603 229.48 603 218.52 603 214 603 213.204 603 212.441 603.316 211.879 603.879 211.316 604.441 211 605.204 211 606zM235 606C235 605.735 234.895 605.48 234.707 605.293 234.52 605.105 234.265 605 234 605L214 605C213.735 605 213.48 605.105 213.293 605.293 213.105 605.48 213 605.735 213 606 213 606.265 213.105 606.52 213.293 606.707 213.48 606.895 213.735 607 214 607L234 607C234.265 607 234.52 606.895 234.707 606.707 234.895 606.52 235 606.265 235 606zM211 598C211 598.796 211.316 599.559 211.879 600.121 212.441 600.684 213.204 601 214 601 218.52 601 229.48 601 234 601 234.796 601 235.559 600.684 236.121 600.121 236.684 599.559 237 598.796 237 598 237 598 237 598 237 598 237 597.204 236.684 596.441 236.121 595.879 235.559 595.316 234.796 595 234 595 229.48 595 218.52 595 214 595 213.204 595 212.441 595.316 211.879 595.879 211.316 596.441 211 597.204 211 598zM235 598C235 597.735 234.895 597.48 234.707 597.293 234.52 597.105 234.265 597 234 597L214 597C213.735 597 213.48 597.105 213.293 597.293 213.105 597.48 213 597.735 213 598 213 598.265 213.105 598.52 213.293 598.707 213.48 598.895 213.735 599 214 599L234 599C234.265 599 234.52 598.895 234.707 598.707 234.895 598.52 235 598.265 235 598z" fill="#f44336" class="color000000 svgShape"></path></g></svg>