<svg xmlns="http://www.w3.org/2000/svg" fill-rule="evenodd" stroke-linejoin="round" stroke-miterlimit="2" clip-rule="evenodd" viewBox="0 0 64 64" id="Archive"><g transform="translate(-192 -448)" fill="#f44336" class="color000000 svgShape"><path d="M242.828 459C242.681 458.582 242.441 458.198 242.121 457.879 241.559 457.316 240.796 457 240 457L208 457C207.204 457 206.441 457.316 205.879 457.879 205.559 458.198 205.319 458.582 205.172 459L242.828 459zM238.828 455L209.172 455C209.319 454.582 209.559 454.198 209.879 453.879 210.441 453.316 211.204 453 212 453L236 453C236.796 453 237.559 453.316 238.121 453.879 238.441 454.198 238.681 454.582 238.828 455zM200 507L248 507C248.796 507 249.559 506.684 250.121 506.121 250.684 505.559 251 504.796 251 504L251 488C251 487.204 250.684 486.441 250.121 485.879 249.559 485.316 248.796 485 248 485 248 485 238.472 485 238.472 485 237.336 485 236.297 485.642 235.789 486.658L234 490.236C233.153 491.93 231.422 493 229.528 493 226.522 493 221.478 493 218.472 493 216.578 493 214.847 491.93 214 490.236L212.211 486.658C211.703 485.642 210.664 485 209.528 485 209.528 485 200 485 200 485 199.204 485 198.441 485.316 197.879 485.879 197.316 486.441 197 487.204 197 488L197 504C197 504.796 197.316 505.559 197.879 506.121 198.441 506.684 199.204 507 200 507zM249 503.2L249 500.8C249 499.806 248.194 499 247.2 499L244.8 499C243.806 499 243 499.806 243 500.8L243 503.2C243 504.194 243.806 505 244.8 505L247.2 505C248.194 505 249 504.194 249 503.2zM241 503.2L241 500.8C241 499.806 240.194 499 239.2 499L236.8 499C235.806 499 235 499.806 235 500.8L235 503.2C235 504.194 235.806 505 236.8 505L239.2 505C240.194 505 241 504.194 241 503.2zM245 503L247 503 247 501 245 501 245 503zM237 503L239 503 239 501 237 501 237 503z" fill="#f44336" class="color000000 svgShape"></path><path d="M247,483L247,464C247,462.343 245.657,461 244,461C244,461 204,461 204,461C202.343,461 201,462.343 201,464L201,483L209.528,483C211.422,483 213.153,484.07 214,485.764L215.789,489.342C216.297,490.358 217.336,491 218.472,491C221.478,491 226.522,491 229.528,491C230.664,491 231.703,490.358 232.211,489.342L234,485.764C234.847,484.07 236.578,483 238.472,483L247,483ZM207,478C207,479.657 208.343,481 210,481L238,481C239.657,481 241,479.657 241,478C241,478 241,478 241,478C241,476.343 239.657,475 238,475L210,475C208.343,475 207,476.343 207,478ZM239,478C239,477.448 238.552,477 238,477C238,477 210,477 210,477C209.448,477 209,477.448 209,478C209,478.552 209.448,479 210,479C210,479 238,479 238,479C238.552,479 239,478.552 239,478ZM207,470C207,471.657 208.343,473 210,473L222,473C223.657,473 225,471.657 225,470C225,470 225,470 225,470C225,468.343 223.657,467 222,467L210,467C208.343,467 207,468.343 207,470ZM223,470C223,469.448 222.552,469 222,469C222,469 210,469 210,469C209.448,469 209,469.448 209,470C209,470.552 209.448,471 210,471C210,471 222,471 222,471C222.552,471 223,470.552 223,470Z" fill="#f44336" class="color000000 svgShape"></path></g></svg>